<svg xmlns="http://www.w3.org/2000/svg" width="32.143" height="25" viewBox="0 0 32.143 25"><g transform="translate(-373 -2815.201)"><g transform="translate(377.1 2819.39)"><g transform="translate(0 0)"><g transform="translate(23.118 15.885)"><path d="M856.521,240.512a.752.752,0,1,1,0-1.5,2.672,2.672,0,0,0,2.668-2.668.752.752,0,1,1,1.5,0A4.177,4.177,0,0,1,856.521,240.512Z" transform="translate(-855.768 -235.586)"/></g><g transform="translate(0.002 15.885)"><path d="M833.575,240.512a4.177,4.177,0,0,1-4.173-4.173.752.752,0,1,1,1.5,0,2.672,2.672,0,0,0,2.668,2.668.752.752,0,1,1,0,1.5Z" transform="translate(-829.402 -235.586)"/></g><path d="M830.154,222.345a.753.753,0,0,1-.754-.752,4.179,4.179,0,0,1,4.174-4.174.753.753,0,1,1,0,1.506,2.671,2.671,0,0,0-2.668,2.669A.752.752,0,0,1,830.154,222.345Z" transform="translate(-829.4 -217.419)"/><g transform="translate(23.118)"><path d="M859.942,222.345a.752.752,0,0,1-.753-.752,2.671,2.671,0,0,0-2.668-2.669.753.753,0,0,1,0-1.506,4.178,4.178,0,0,1,4.172,4.174A.751.751,0,0,1,859.942,222.345Z" transform="translate(-855.768 -217.419)"/></g><g transform="translate(26.538 3.422)"><path d="M860.433,235.3a.752.752,0,0,1-.753-.753V222.085a.752.752,0,1,1,1.5,0v12.464A.751.751,0,0,1,860.433,235.3Z" transform="translate(-859.68 -221.332)"/></g><g transform="translate(3.422 19.306)"><path d="M853.76,241H834.068a.752.752,0,1,1,0-1.5H853.76a.752.752,0,1,1,0,1.5Z" transform="translate(-833.313 -239.498)"/></g><g transform="translate(0 3.422)"><path d="M830.154,235.3a.754.754,0,0,1-.754-.753V222.085a.753.753,0,0,1,1.507,0v12.464A.752.752,0,0,1,830.154,235.3Z" transform="translate(-829.4 -221.332)"/></g><g transform="translate(3.422)"><path d="M853.76,218.925H834.068a.753.753,0,1,1,0-1.506H853.76a.753.753,0,1,1,0,1.506Z" transform="translate(-833.313 -217.419)"/></g><g transform="translate(0.378 4.999)"><path d="M856.745,223.889H830.209a.376.376,0,1,1,0-.753h26.536a.376.376,0,1,1,0,.753Z" transform="translate(-829.832 -223.136)"/></g><g transform="translate(0.378 8.11)"><path d="M856.745,227.447H830.209a.376.376,0,1,1,0-.753h26.536a.376.376,0,1,1,0,.753Z" transform="translate(-829.832 -226.694)"/></g><g transform="translate(2.712 10.029)"><path d="M837.156,229.642h-4.278a.377.377,0,0,1,0-.754h4.278a.377.377,0,1,1,0,.754Z" transform="translate(-832.502 -228.888)"/></g></g></g><g transform="translate(373 2815.201)"><g transform="translate(0 0)"><g transform="translate(0.002 15.885)"><path d="M833.575,240.512a4.177,4.177,0,0,1-4.173-4.173.752.752,0,1,1,1.5,0,2.672,2.672,0,0,0,2.668,2.668.752.752,0,1,1,0,1.5Z" transform="translate(-829.402 -235.586)"/></g><path d="M830.154,222.345a.753.753,0,0,1-.754-.752,4.179,4.179,0,0,1,4.174-4.174.753.753,0,1,1,0,1.506,2.671,2.671,0,0,0-2.668,2.669A.752.752,0,0,1,830.154,222.345Z" transform="translate(-829.4 -217.419)"/><g transform="translate(23.118)"><path d="M859.942,222.345a.752.752,0,0,1-.753-.752,2.671,2.671,0,0,0-2.668-2.669.753.753,0,0,1,0-1.506,4.178,4.178,0,0,1,4.172,4.174A.751.751,0,0,1,859.942,222.345Z" transform="translate(-855.768 -217.419)"/></g><g transform="translate(0 3.422)"><path d="M830.154,235.3a.754.754,0,0,1-.754-.753V222.085a.753.753,0,0,1,1.507,0v12.464A.752.752,0,0,1,830.154,235.3Z" transform="translate(-829.4 -221.332)"/></g><g transform="translate(3.422)"><path d="M853.76,218.925H834.068a.753.753,0,1,1,0-1.506H853.76a.753.753,0,1,1,0,1.506Z" transform="translate(-833.313 -217.419)"/></g></g></g></g></svg>