<svg xmlns="http://www.w3.org/2000/svg" width="25" height="25" viewBox="0 0 25 25"><path d="M17.552,0H7.448A7.456,7.456,0,0,0,0,7.448v10.1A7.456,7.456,0,0,0,7.448,25h10.1A7.456,7.456,0,0,0,25,17.552V7.448A7.456,7.456,0,0,0,17.552,0Zm4.933,17.552a4.933,4.933,0,0,1-4.933,4.933H7.448a4.933,4.933,0,0,1-4.933-4.933V7.448A4.933,4.933,0,0,1,7.448,2.515h10.1a4.933,4.933,0,0,1,4.933,4.933v10.1Z"/><path d="M139.441,133a6.441,6.441,0,1,0,6.441,6.441A6.449,6.449,0,0,0,139.441,133Zm0,10.377a3.936,3.936,0,1,1,3.936-3.936A3.936,3.936,0,0,1,139.441,143.377Z" transform="translate(-126.941 -126.941)"/><circle cx="1.556" cy="1.556" r="1.556" transform="translate(17.419 4.531)"/></svg>