<svg xmlns="http://www.w3.org/2000/svg" x="0" y="0" width="70" height="15" viewBox="0 0 246 51"><g transform="translate(-48.87 -47.87)"><path d="M78.4 75.72c6.33-1.97 10.59-7.22 10.59-13.06 0-7.6-6.93-13.79-15.45-13.79H48.87v48.88h8.23V78.44h5.98c5.11 0 6.71.16 9.36 3.87L82.5 97.76H92L77.71 75.94zM57.09 71V56.31h16.62c3.97 0 7.05 3.95 7.05 7.34 0 4.2-3.81 7.34-7.22 7.34H57.09z" fill="#27211f"></path><path d="M105.24 73.28c0-9.76 7.91-17.69 17.62-17.69 4.62 0 9.37 2.16 13.38 6.08l.27.27 6.07-5.52-.32-.3c-3.24-3-6.23-5.05-9.14-6.28-3.39-1.35-6.93-2.06-10.25-2.06-3.61 0-7 .65-10.36 1.99-3.18 1.34-6.06 3.28-8.3 5.61-4.85 4.75-7.51 11.1-7.51 17.9 0 6.8 2.66 13.15 7.48 17.88 2.25 2.33 5.06 4.23 8.36 5.65 3.38 1.39 6.77 2.06 10.34 2.06 3.51 0 7.06-.72 10.29-2.08 3.03-1.35 6.1-3.49 9.11-6.35l.32-.31-6.27-5.43-.27.27c-3.85 3.86-8.66 6.07-13.19 6.07-9.73.01-17.63-7.96-17.63-17.76z" fill="#27211f"></path><path fill="#27211f" d="M194.1 48.87h-8.39l.01 21.09h-23.45l-.02-21.09h-8.38v48.88h8.38l.02-20.34h23.45l-.01 20.34h8.39z"></path><path d="M287.18 55.42c-5.03-4.94-11.57-7.65-18.43-7.65-7.2 0-13.89 2.81-18.84 7.91-4.66 4.8-7.33 11.21-7.33 17.6 0 13.87 11.98 25.59 26.17 25.59 7.1 0 13.77-2.86 18.78-8.04 4.7-4.87 7.4-11.26 7.4-17.55-.01-6.52-2.83-13.02-7.75-17.86zm-18.43 35.65c-9.73 0-17.64-7.98-17.64-17.79 0-9.77 7.91-17.71 17.64-17.71 9.68 0 17.56 7.95 17.56 17.71 0 9.81-7.88 17.79-17.56 17.79z" fill="#27211f"></path><path d="M215.56 83.97v-35.1h-8.39v35.1c0 7.6 6.85 13.79 15.28 13.79h17.41v-7.44h-17.41c-3.89 0-6.89-2.85-6.89-6.35z" fill="#27211f"></path></g></svg>
