<svg xmlns="http://www.w3.org/2000/svg" viewBox="0 0 42.705 30" fill="#221f1f"><path d="M6.9 27.552a1.12 1.12 0 0 1-.421-.081 1.04 1.04 0 0 1-.654-.954v-5.36H1.067c-.582.01-1.06-.455-1.07-1.037V1.04C.006.457.485-.007 1.067.002H31.13c.28-.005.55.102.75.296s.317.46.322.74v19.08c-.01.582-.49 1.046-1.073 1.036H14.19L7.646 27.26a1.1 1.1 0 0 1-.746.291zm-4.756-8.467H6.9c.28-.005.55.1.75.295s.317.46.32.74v3.955l5.037-4.7a1.1 1.1 0 0 1 .749-.292h16.3v-17H2.144z"/><path d="M38.097 29.998c-.278 0-.546-.107-.746-.3l-4.883-4.722H19.742c-.285 0-.558-.113-.76-.314s-.315-.474-.315-.76v-3.5c0-.593.48-1.073 1.073-1.073s1.073.48 1.073 1.073v2.423h12.088c.278 0 .546.107.746.3l3.377 3.264v-2.493c0-.6.475-1.07 1.065-1.074l2.47-.017V9.564h-9.075c-.593 0-1.073-.48-1.073-1.073s.48-1.073 1.073-1.073h10.148c.285 0 .558.113.76.314s.315.474.315.76v15.384c0 .59-.474 1.068-1.063 1.074l-2.473.017v3.958c0 .43-.258.82-.655.99-.133.056-.276.085-.42.085z"/></svg>