<svg xmlns="http://www.w3.org/2000/svg" width="30" height="30" viewBox="0 0 30 30">
  <g transform="translate(-377.121 -2809.121)">
    <g transform="translate(382.732 2814.824)">
      <g transform="translate(0 0)">
        <g>
          <path d="M118.766,115.887l-2.926-2.915a1.7,1.7,0,0,0-2.407,0l0,0-1.676,1.676a.37.37,0,0,1-.474.042,19.321,19.321,0,0,1-4.514-4.43.364.364,0,0,1,.036-.474l1.718-1.718a1.7,1.7,0,0,0,0-2.405l-2.926-2.926a1.744,1.744,0,0,0-2.41,0l-.927.927a5.206,5.206,0,0,0-1.291,5.31,15.617,15.617,0,0,0,1.905,3.863,20.25,20.25,0,0,0,5.846,5.742,14.9,14.9,0,0,0,4.331,1.926,5.014,5.014,0,0,0,1.208.146,5.268,5.268,0,0,0,3.712-1.562l.8-.8A1.7,1.7,0,0,0,118.766,115.887Zm-.737,1.7,0,0,.005-.016-.8.8a4.165,4.165,0,0,1-3.931,1.124,13.838,13.838,0,0,1-4.019-1.8,19.247,19.247,0,0,1-5.539-5.43,14.576,14.576,0,0,1-1.78-3.6,4.165,4.165,0,0,1,1.041-4.253l.927-.927a.661.661,0,0,1,.935,0l0,0L107.8,106.4a.661.661,0,0,1,0,.935l0,0-1.718,1.718a1.4,1.4,0,0,0-.146,1.822,20.509,20.509,0,0,0,4.763,4.675,1.411,1.411,0,0,0,1.8-.156l1.661-1.687a.661.661,0,0,1,.935,0l0,0,2.931,2.936A.661.661,0,0,1,118.029,117.582Z" transform="translate(-100.712 -102.253)" stroke="#231f20" stroke-width="0.5"/>
        </g>
      </g>
    </g>
    <g transform="translate(377.121 2809.121)">
      <g transform="translate(0 0)">
        <g transform="translate(0 0)">
          <path d="M150.614,1686.185a15,15,0,1,1,15-15A15.017,15.017,0,0,1,150.614,1686.185Zm0-28.246a13.246,13.246,0,1,0,13.246,13.246A13.261,13.261,0,0,0,150.614,1657.939Z" transform="translate(-135.614 -1656.185)" fill="#231f20"/>
        </g>
      </g>
    </g>
  </g>
</svg>
