<svg xmlns="http://www.w3.org/2000/svg" width="30.782" height="25" viewBox="0 0 30.782 25"><g transform="translate(0.001 -42.259)"><path d="M30.781,45.228a12.588,12.588,0,0,1-3.633.977,6.126,6.126,0,0,0,2.774-3.477,12.384,12.384,0,0,1-4,1.523,6.324,6.324,0,0,0-9.073-.147A6.08,6.08,0,0,0,15,48.568a7,7,0,0,0,.156,1.445A17.579,17.579,0,0,1,7.9,48.07a17.886,17.886,0,0,1-5.752-4.658,6.322,6.322,0,0,0-.1,6.192A6.3,6.3,0,0,0,4.1,51.849a6.259,6.259,0,0,1-2.852-.8v.078A6.1,6.1,0,0,0,2.685,55.14a6.207,6.207,0,0,0,3.623,2.178,6.536,6.536,0,0,1-1.66.215,8.048,8.048,0,0,1-1.191-.1,6.322,6.322,0,0,0,5.9,4.375,12.352,12.352,0,0,1-7.832,2.695A13.431,13.431,0,0,1,0,64.427a17.521,17.521,0,0,0,9.688,2.832,18.432,18.432,0,0,0,6.308-1.064,16.034,16.034,0,0,0,5.039-2.852,19.083,19.083,0,0,0,3.6-4.111,18.334,18.334,0,0,0,2.256-4.853,17.93,17.93,0,0,0,.742-5.069q0-.547-.02-.82A13.212,13.212,0,0,0,30.781,45.228Z"/></g></svg>