<svg xmlns="http://www.w3.org/2000/svg" width="25" height="25" viewBox="0 0 25 25"><g transform="translate(0 -0.631)"><g transform="translate(0 8.444)"><rect width="5.591" height="17.187"/></g><g transform="translate(7.812 8.444)"><path d="M173.006,160.2c-.059-.019-.116-.039-.178-.056s-.15-.031-.227-.044a5.012,5.012,0,0,0-1-.1,7.768,7.768,0,0,0-6.008,3.286V160H160v17.188h5.591v-9.375s4.225-5.884,6.008-1.562v10.938h5.589v-11.6A5.574,5.574,0,0,0,173.006,160.2Z" transform="translate(-160 -160)"/></g><g transform="translate(0 0.631)"><g transform="translate(0 0)"><circle cx="3" cy="3" r="3" transform="translate(0 0)"/></g></g></g></svg>