<svg xmlns="http://www.w3.org/2000/svg" width="19" height="25" viewBox="0 0 19 25"><path d="M2.975,13.585c.031-.078.344-1.281.366-1.362a8.4,8.4,0,0,1-.615-5.1c.449-2.868,3.488-4.277,6.357-4.277V2.842c3.592,0,6.281,2,6.284,5.443,0,2.694-1.621,6.256-4.392,6.256h0a3.952,3.952,0,0,1-2.57-.889,1.969,1.969,0,0,1-.272-1.8,23.838,23.838,0,0,0,1.19-4.694A1.773,1.773,0,0,0,7.464,5.2a2.632,2.632,0,0,0-2.409,1.81,4.866,4.866,0,0,0,.029,3.548c.178.5-.789,3.759-1.1,4.82-.77,2.636-1.823,5.972-1.6,7.829L2.6,25,3.7,23.569c1.511-1.978,3.074-7.1,3.49-8.342,1.231,1.594,3.794,1.64,4.093,1.64,3.671,0,7.834-3.645,7.716-8.719C18.893,3.7,15.636,0,9.786,0V.006C4.22.006.972,2.976.177,6.73-.551,10.21,1.068,12.858,2.975,13.585Zm0,0" transform="translate(0.001)"/></svg>