<svg xmlns="http://www.w3.org/2000/svg" width="39.374" height="25" viewBox="0 0 39.374 25"><g transform="translate(0 -92.25)"><g transform="translate(0 92.25)"><path d="M34.053,103.25a4.5,4.5,0,1,0-5.157,0,7.789,7.789,0,0,0-2.657,1.558,10.078,10.078,0,0,0-3.646-1.987,5.695,5.695,0,1,0-5.89,0,10.162,10.162,0,0,0-3.607,1.963,7.852,7.852,0,0,0-2.625-1.527,4.5,4.5,0,1,0-5.157,0A7.89,7.89,0,0,0,0,110.714v.514a.034.034,0,0,0,.031.031H9.559a10.479,10.479,0,0,0-.086,1.317v.53a4.143,4.143,0,0,0,4.145,4.145H25.693a4.143,4.143,0,0,0,4.145-4.145v-.53a10.478,10.478,0,0,0-.086-1.317h9.59a.034.034,0,0,0,.031-.031v-.514A7.921,7.921,0,0,0,34.053,103.25Zm-5.827-3.685a3.249,3.249,0,1,1,3.311,3.249h-.125A3.244,3.244,0,0,1,28.225,99.565Zm-13.041-1.62a4.448,4.448,0,1,1,4.706,4.441h-.514A4.455,4.455,0,0,1,15.184,97.945ZM4.62,99.565a3.249,3.249,0,1,1,3.311,3.249H7.806A3.249,3.249,0,0,1,4.62,99.565ZM9.777,110H1.262a6.657,6.657,0,0,1,6.56-5.944h.093a6.587,6.587,0,0,1,4.246,1.581A10.229,10.229,0,0,0,9.777,110Zm18.8,3.1a2.9,2.9,0,0,1-2.9,2.9H13.6a2.9,2.9,0,0,1-2.9-2.9v-.53a8.949,8.949,0,0,1,8.671-8.936c.086.008.179.008.265.008s.179,0,.265-.008a8.949,8.949,0,0,1,8.671,8.936ZM29.5,110a10.2,10.2,0,0,0-2.361-4.332,6.619,6.619,0,0,1,4.285-1.613h.093A6.657,6.657,0,0,1,38.08,110Z" transform="translate(0 -92.25)"/></g></g></svg>